<?xml version="1.0" encoding="UTF-8"?>
<svg width="103px" height="39px" viewBox="0 0 103 39" version="1.1" xmlns="http://www.w3.org/2000/svg" xmlns:xlink="http://www.w3.org/1999/xlink">
    <!-- Generator: Sketch 49.3 (51167) - http://www.bohemiancoding.com/sketch -->
    <title>shipt-logo_CMYK</title>
    <desc>Created with Sketch.</desc>
    <defs></defs>
    <g id="Symbols" stroke="none" stroke-width="1" fill="none" fill-rule="evenodd">
        <g id="Top-Nav---Mobile" transform="translate(-15.000000, -18.000000)">
            <g id="shipt-logo_CMYK" transform="translate(15.000000, 18.000000)">
                <path d="M37.8252637,19.1465001 C37.8252637,29.601445 29.4029209,38.0781186 19.0127788,38.0781186 C8.6226367,38.0781186 0.199482943,29.601445 0.199482943,19.1465001 C0.199482943,8.69128323 8.6226367,0.214881662 19.0127788,0.214881662 C29.4029209,0.214881662 37.8252637,8.69128323 37.8252637,19.1465001" id="Fill-1" fill="#6BA744"></path>
                <path d="M83.7701319,17.8871304 L87.8889952,17.8871304 L87.8889952,15.6866333 L83.7701319,15.6866333 L83.7701319,17.8871304 Z M88.2790411,13.314503 L81.4198552,13.314503 L81.4198552,24.3175321 L83.7701319,24.3175321 L83.7701319,20.2603487 L86.3325957,20.2603487 L88.8258622,20.1749401 C89.6402824,19.9342182 90.2495433,19.1807724 90.2495433,18.2828934 L90.2495433,15.2968543 C90.2495433,14.2004138 89.3634931,13.314503 88.2790411,13.314503 Z" id="Fill-2" fill="#575754"></path>
                <path d="M53.220049,13.314503 L48.3300139,13.314503 C47.2461025,13.314503 46.3692425,14.2004138 46.3692425,15.2968543 L46.3692425,17.9989232 C46.3692425,19.0885637 47.2461025,19.9742025 48.3300139,19.9742025 L52.8302734,19.9742025 L52.8302734,21.9094975 L46.3692425,21.9094975 L46.3692425,22.2968285 C46.3692425,23.3913649 47.2461025,24.2778198 48.3300139,24.3153561 L53.220049,24.3153561 C54.3026089,24.2778198 55.1910918,23.3913649 55.1910918,22.2968285 L55.1910918,19.5874155 C55.1910918,18.4958711 54.3026089,17.6069682 53.220049,17.6069682 L48.7203301,17.6069682 L48.7203301,15.6866333 L55.1910918,15.6866333 L55.1910918,15.2968543 C55.1910918,14.2004138 54.3026089,13.314503 53.220049,13.314503" id="Fill-3" fill="#575754"></path>
                <path d="M76.363314,15.2968543 C76.363314,14.2004138 75.4751014,13.314503 74.3906494,13.314503 L74.0133076,13.314503 L74.0133076,24.3175321 L76.3681795,24.3175321 L76.363314,15.6866333 L76.363314,15.2968543" id="Fill-4" fill="#575754"></path>
                <path d="M100.839439,13.314503 L93.9575474,13.314503 L93.9575474,15.6866333 L96.9670909,15.6866333 L96.9670909,24.3175321 L99.3243954,24.3175321 L99.3243954,15.6866333 L102.810211,15.6866333 L102.810211,15.2968543 C102.810211,14.2004138 101.927675,13.314503 100.839439,13.314503" id="Fill-5" fill="#575754"></path>
                <path d="M68.9140587,15.2968543 C68.9140587,14.2004138 68.0342254,13.314503 66.9497734,13.314503 L66.5662147,13.314503 L66.5662147,17.8884904 L66.558376,17.8871304 L62.4438375,17.8871304 L62.4438375,13.314503 L60.0889657,13.314503 L60.0889657,24.3175321 L62.4438375,24.3175321 L62.4438375,20.2603487 L66.5662147,20.2603487 L66.5662147,24.3175321 L68.9224381,24.3175321 L68.9140587,15.6866333 L68.9140587,15.2968543" id="Fill-6" fill="#575754"></path>
                <path d="M4.04912532,16.9500831 C7.01028473,17.8561221 10.1030813,18.5023991 13.2956193,18.8551859 L24.7404801,18.8551859 C27.9289635,18.5023991 31.0179758,17.8572101 33.9756213,16.9528031 L33.9756213,16.416143 L4.04912532,16.416143 L4.04912532,16.9500831" id="Fill-7" fill="#FFFFFE"></path>
                <path d="M19.0127788,10.4035365 C16.876311,10.4035365 14.9898728,11.372952 13.8486573,12.8512834 L24.1760893,12.8512834 C23.0356848,11.372952 21.1497871,10.4035365 19.0127788,10.4035365" id="Fill-8" fill="#FFFFFE"></path>
                <polyline id="Fill-9" fill="#FFFFFE" points="16.3224621 20.1554125 21.6114631 20.1554125 22.7964674 19.4331903 15.2285495 19.4331903 16.3224621 20.1554125"></polyline>
                <polyline id="Fill-10" fill="#FFFFFE" points="19.0141303 30.4373075 19.8042233 21.9848421 18.221064 21.9848421 19.0141303 30.4373075"></polyline>
                <polyline id="Fill-11" fill="#FFFFFE" points="9.73141588 28.4019157 14.2524887 21.2341163 12.841782 20.5100467 9.73141588 28.4019157"></polyline>
                <polyline id="Fill-12" fill="#FFFFFE" points="23.7727986 21.2341163 28.2936011 28.4019157 25.1835052 20.5100467 23.7727986 21.2341163"></polyline>
                <path d="M28.2735987,15.247894 C28.0316783,15.247894 27.8321954,15.0520524 27.8321954,14.8086106 C27.8321954,14.5624487 28.0316783,14.3663351 28.2735987,14.3663351 C28.51633,14.3663351 28.7128396,14.5624487 28.7128396,14.8086106 C28.7128396,15.0520524 28.51633,15.247894 28.2735987,15.247894 Z M25.9587316,15.247894 C25.7170815,15.247894 25.517058,15.0520524 25.517058,14.8086106 C25.517058,14.5624487 25.7170815,14.3663351 25.9587316,14.3663351 C26.2020035,14.3663351 26.3982428,14.5624487 26.3982428,14.8086106 C26.3982428,15.0520524 26.2020035,15.247894 25.9587316,15.247894 Z M23.6427833,15.247894 C23.4016738,15.247894 23.2019206,15.0520524 23.2019206,14.8086106 C23.2019206,14.5624487 23.4016738,14.3663351 23.6427833,14.3663351 C23.8857849,14.3663351 24.0833757,14.5624487 24.0833757,14.8086106 C24.0833757,15.0520524 23.8857849,15.247894 23.6427833,15.247894 Z M21.3289974,15.247894 C21.0876176,15.247894 20.8870535,15.0520524 20.8870535,14.8086106 C20.8870535,14.5624487 21.0876176,14.3663351 21.3289974,14.3663351 C21.5725396,14.3663351 21.7682383,14.5624487 21.7682383,14.8086106 C21.7682383,15.0520524 21.5725396,15.247894 21.3289974,15.247894 Z M19.0127788,15.247894 C18.7716693,15.247894 18.5721864,15.0520524 18.5721864,14.8086106 C18.5721864,14.5624487 18.7716693,14.3663351 19.0127788,14.3663351 C19.2571319,14.3663351 19.4531009,14.5624487 19.4531009,14.8086106 C19.4531009,15.0520524 19.2571319,15.247894 19.0127788,15.247894 Z M16.6968305,15.247894 C16.4540992,15.247894 16.2573193,15.0520524 16.2573193,14.8086106 C16.2573193,14.5624487 16.4540992,14.3663351 16.6968305,14.3663351 C16.9384805,14.3663351 17.1379635,14.5624487 17.1379635,14.8086106 C17.1379635,15.0520524 16.9384805,15.247894 16.6968305,15.247894 Z M14.3811524,15.247894 C14.1389618,15.247894 13.9419116,15.0520524 13.9419116,14.8086106 C13.9419116,14.5624487 14.1389618,14.3663351 14.3811524,14.3663351 C14.6228025,14.3663351 14.8230964,14.5624487 14.8230964,14.8086106 C14.8230964,15.0520524 14.6228025,15.247894 14.3811524,15.247894 Z M12.0673665,15.247894 C11.8240947,15.247894 11.6270444,15.0520524 11.6270444,14.8086106 C11.6270444,14.5624487 11.8240947,14.3663351 12.0673665,14.3663351 C12.3079354,14.3663351 12.5082293,14.5624487 12.5082293,14.8086106 C12.5082293,15.0520524 12.3079354,15.247894 12.0673665,15.247894 Z M9.75168854,15.247894 C9.50868696,15.247894 9.31190703,15.0520524 9.31190703,14.8086106 C9.31190703,14.5624487 9.50868696,14.3663351 9.75168854,14.3663351 C9.99333861,14.3663351 10.1930919,14.5624487 10.1930919,14.8086106 C10.1930919,15.0520524 9.99333861,15.247894 9.75168854,15.247894 Z M30.9931081,14.6350732 C31.0155431,14.6881136 31.0282473,14.7468661 31.0282473,14.8086106 C31.0282473,15.0520524 30.8311971,15.247894 30.5884658,15.247894 C30.3473564,15.247894 30.1470625,15.0520524 30.1470625,14.8086106 C30.1470625,14.6734255 30.2086914,14.5548326 30.3027565,14.47432 C28.4879483,14.0657728 26.6323244,13.7510664 24.7404801,13.5418968 L13.2956193,13.5418968 C11.4008016,13.7513384 9.54220442,14.0665888 7.72442285,14.47568 C7.81767707,14.5564646 7.87822474,14.6745135 7.87822474,14.8086106 C7.87822474,15.0520524 7.6782012,15.247894 7.43736203,15.247894 C7.19354955,15.247894 6.99676962,15.0520524 6.99676962,14.8086106 C6.99676962,14.7476821 7.00893322,14.6900176 7.03082769,14.6375212 C6.0236821,14.8790591 5.0287001,15.1475252 4.04912532,15.4469995 L4.04912532,15.7986982 L33.9756213,15.7986982 L33.9756213,15.4445515 C32.9960465,15.1448052 32.0005239,14.8766111 30.9931081,14.6350732 Z" id="Fill-13" fill="#FFFFFE"></path>
            </g>
        </g>
    </g>
</svg>